<svg id="Camada_1" data-name="Camada 1" xmlns="http://www.w3.org/2000/svg" viewBox="0 0 1932.02 172.88"><title>Sem título-1</title><path d="M-3.38,147.5c125.16-53.36,253.77-101.17,387.74-127C450.71,7.76,518.21.57,585.81,1.11,650.39,1.63,714.71,9.4,778.19,21c125.84,22.9,248.39,60.29,373.2,87.81,119.52,26.36,242.89,43.63,365.07,26.91,130.25-17.83,250.26-75,365.63-135.25q21.79-11.37,43.51-22.88c1.71-.9.19-3.49-1.51-2.59C1806.92,36.82,1687.3,99.88,1556.19,126c-125.34,25-253.67,11.3-377.69-14.47C1053.38,85.52,931,48,805.56,23.11,744.36,11,682.41,1.91,620-1c-65-3-130.09,1.32-194.34,11.27C292,31,163.17,75.36,38.46,126.72q-21.74,9-43.35,18.19c-1.77.75-.24,3.34,1.51,2.59Z" transform="translate(5.68 25.24)"/></svg>